<mxfile host="app.diagrams.net" modified="2022-10-24T04:51:52.245Z" agent="5.0 (Windows NT 10.0; Win64; x64) AppleWebKit/537.36 (KHTML, like Gecko) Chrome/106.0.0.0 Safari/537.36" etag="cf1lGU2RePtGf6d5Ed0n" version="20.5.1" type="github">
  <diagram id="clrmc2PGoMmSSy8zNbHT" name="Page-1">
    <mxGraphModel dx="1328" dy="710" grid="1" gridSize="10" guides="1" tooltips="1" connect="1" arrows="1" fold="1" page="1" pageScale="1" pageWidth="1169" pageHeight="827" math="0" shadow="0">
      <root>
        <mxCell id="0" />
        <mxCell id="1" parent="0" />
        <mxCell id="aKoqCFkMuB0toRK6ifsi-1" value="" style="verticalLabelPosition=bottom;html=1;verticalAlign=top;align=center;shape=mxgraph.floorplan.wall;fillColor=strokeColor;" vertex="1" parent="1">
          <mxGeometry x="520" y="350" width="240" height="10" as="geometry" />
        </mxCell>
        <mxCell id="aKoqCFkMuB0toRK6ifsi-2" value="" style="verticalLabelPosition=bottom;html=1;verticalAlign=top;align=center;shape=mxgraph.floorplan.wall;fillColor=strokeColor;direction=south;" vertex="1" parent="1">
          <mxGeometry x="520" y="240" width="10" height="110" as="geometry" />
        </mxCell>
        <mxCell id="aKoqCFkMuB0toRK6ifsi-3" value="" style="verticalLabelPosition=bottom;html=1;verticalAlign=top;align=center;shape=mxgraph.floorplan.wall;fillColor=strokeColor;direction=south;" vertex="1" parent="1">
          <mxGeometry x="750" y="240" width="10" height="110" as="geometry" />
        </mxCell>
        <mxCell id="aKoqCFkMuB0toRK6ifsi-4" value="" style="verticalLabelPosition=bottom;html=1;verticalAlign=top;align=center;shape=mxgraph.floorplan.wall;fillColor=strokeColor;direction=south;" vertex="1" parent="1">
          <mxGeometry x="520" y="440" width="10" height="100" as="geometry" />
        </mxCell>
        <mxCell id="aKoqCFkMuB0toRK6ifsi-5" value="" style="verticalLabelPosition=bottom;html=1;verticalAlign=top;align=center;shape=mxgraph.floorplan.wall;fillColor=strokeColor;" vertex="1" parent="1">
          <mxGeometry x="600" y="270" width="80" height="10" as="geometry" />
        </mxCell>
        <mxCell id="aKoqCFkMuB0toRK6ifsi-6" value="" style="verticalLabelPosition=bottom;html=1;verticalAlign=top;align=center;shape=mxgraph.floorplan.wall;fillColor=strokeColor;direction=south;" vertex="1" parent="1">
          <mxGeometry x="750" y="440" width="10" height="100" as="geometry" />
        </mxCell>
        <mxCell id="aKoqCFkMuB0toRK6ifsi-7" value="" style="verticalLabelPosition=bottom;html=1;verticalAlign=top;align=center;shape=mxgraph.floorplan.wall;fillColor=strokeColor;" vertex="1" parent="1">
          <mxGeometry x="530" y="530" width="230" height="10" as="geometry" />
        </mxCell>
        <mxCell id="aKoqCFkMuB0toRK6ifsi-8" value="" style="verticalLabelPosition=bottom;html=1;verticalAlign=top;align=center;shape=mxgraph.floorplan.wall;fillColor=strokeColor;" vertex="1" parent="1">
          <mxGeometry x="590" y="470" width="100" height="10" as="geometry" />
        </mxCell>
        <mxCell id="aKoqCFkMuB0toRK6ifsi-9" value="18 inch" style="shape=dimension;direction=north;whiteSpace=wrap;html=1;align=right;points=[];verticalAlign=middle;labelBackgroundColor=#ffffff" vertex="1" parent="1">
          <mxGeometry x="760" y="240" width="60" height="120" as="geometry" />
        </mxCell>
        <mxCell id="aKoqCFkMuB0toRK6ifsi-10" value="14 inch" style="shape=dimension;direction=north;whiteSpace=wrap;html=1;align=right;points=[];verticalAlign=middle;labelBackgroundColor=#ffffff" vertex="1" parent="1">
          <mxGeometry x="760" y="440" width="60" height="100" as="geometry" />
        </mxCell>
        <mxCell id="aKoqCFkMuB0toRK6ifsi-11" value="" style="verticalLabelPosition=bottom;html=1;verticalAlign=top;align=center;shape=mxgraph.floorplan.wall;fillColor=strokeColor;direction=south;" vertex="1" parent="1">
          <mxGeometry x="590" y="240" width="10" height="40" as="geometry" />
        </mxCell>
        <mxCell id="aKoqCFkMuB0toRK6ifsi-12" value="" style="verticalLabelPosition=bottom;html=1;verticalAlign=top;align=center;shape=mxgraph.floorplan.wall;fillColor=strokeColor;direction=south;" vertex="1" parent="1">
          <mxGeometry x="680" y="240" width="10" height="40" as="geometry" />
        </mxCell>
        <mxCell id="aKoqCFkMuB0toRK6ifsi-13" value="" style="verticalLabelPosition=bottom;html=1;verticalAlign=top;align=center;shape=mxgraph.floorplan.wall;fillColor=strokeColor;" vertex="1" parent="1">
          <mxGeometry x="520" y="240" width="80" height="10" as="geometry" />
        </mxCell>
        <mxCell id="aKoqCFkMuB0toRK6ifsi-14" value="" style="verticalLabelPosition=bottom;html=1;verticalAlign=top;align=center;shape=mxgraph.floorplan.wall;fillColor=strokeColor;" vertex="1" parent="1">
          <mxGeometry x="690" y="240" width="70" height="10" as="geometry" />
        </mxCell>
        <mxCell id="aKoqCFkMuB0toRK6ifsi-15" value="" style="verticalLabelPosition=bottom;html=1;verticalAlign=top;align=center;shape=mxgraph.floorplan.wall;fillColor=strokeColor;direction=south;" vertex="1" parent="1">
          <mxGeometry x="590" y="440" width="10" height="40" as="geometry" />
        </mxCell>
        <mxCell id="aKoqCFkMuB0toRK6ifsi-16" value="" style="verticalLabelPosition=bottom;html=1;verticalAlign=top;align=center;shape=mxgraph.floorplan.wall;fillColor=strokeColor;direction=south;" vertex="1" parent="1">
          <mxGeometry x="680" y="440" width="10" height="40" as="geometry" />
        </mxCell>
        <mxCell id="aKoqCFkMuB0toRK6ifsi-17" value="" style="verticalLabelPosition=bottom;html=1;verticalAlign=top;align=center;shape=mxgraph.floorplan.wall;fillColor=strokeColor;" vertex="1" parent="1">
          <mxGeometry x="520" y="440" width="80" height="10" as="geometry" />
        </mxCell>
        <mxCell id="aKoqCFkMuB0toRK6ifsi-18" value="" style="verticalLabelPosition=bottom;html=1;verticalAlign=top;align=center;shape=mxgraph.floorplan.wall;fillColor=strokeColor;" vertex="1" parent="1">
          <mxGeometry x="690" y="440" width="70" height="10" as="geometry" />
        </mxCell>
      </root>
    </mxGraphModel>
  </diagram>
</mxfile>
